<svg xmlns="http://www.w3.org/2000/svg" width="32" height="31" viewBox="0 0 32 31" fill="none">
<path d="M31.5 15.5C31.5 23.7694 24.5755 30.5 16 30.5C7.4245 30.5 0.5 23.7694 0.5 15.5C0.5 7.23057 7.4245 0.5 16 0.5C24.5755 0.5 31.5 7.23057 31.5 15.5Z" fill="#ACD8AA" stroke="#ACD8AA"/>
<path d="M14.3999 23H17.5999C20.6168 23 22.1254 23 23.0626 22.0627C23.9998 21.1255 23.9998 19.617 23.9998 16.6001C23.9998 13.5831 23.9998 12.0746 23.0626 11.1374C22.7725 10.8473 22.4273 10.647 21.9995 10.5087C21.9999 10.6443 21.9999 10.783 21.9999 10.9241V12.6506C21.9999 12.674 22.0001 12.6996 22.0003 12.7271C22.0027 12.9994 22.0067 13.4559 21.8111 13.8735C21.6155 14.2912 21.2623 14.5804 21.0515 14.753C21.0304 14.7702 21.0103 14.7866 20.9924 14.8015L19.7872 15.8059C19.0986 16.3797 18.4992 16.8793 17.9603 17.2259C17.3795 17.5995 16.7512 17.8758 15.9999 17.8758C15.2486 17.8758 14.6204 17.5995 14.0395 17.2259C13.5007 16.8793 12.9012 16.3797 12.2127 15.8059L11.0075 14.8015C10.9894 14.7866 10.9696 14.7703 10.9484 14.753C10.7376 14.5804 10.3844 14.2912 10.1888 13.8735C9.9932 13.4559 9.99716 12.9994 9.99953 12.7271C9.99976 12.6996 9.99999 12.674 9.99999 12.6506V10.9241C9.99997 10.7828 9.99996 10.6442 10.0003 10.5084C9.5726 10.6467 9.22752 10.8471 8.93725 11.1374C8 12.0746 8 13.5831 8 16.6001C8 19.617 8 21.1255 8.93725 22.0627C9.87449 23 11.383 23 14.3999 23Z" fill="white" fill-opacity="0.666667"/>
<path fill-rule="evenodd" clip-rule="evenodd" d="M11.7757 13.8797L12.9271 14.8392C14.3964 16.0636 15.131 16.6758 16 16.6758C16.8689 16.6758 17.6036 16.0636 19.0728 14.8392L20.2243 13.8797C20.5073 13.6438 20.6489 13.5259 20.7244 13.3646C20.7999 13.2033 20.7999 13.0191 20.7999 12.6505V11C20.7999 10.7435 20.7999 10.5044 20.7984 10.2813C20.7891 8.86446 20.7203 8.09188 20.2142 7.58578C19.6284 7 18.6856 7 16.8 7H15.2C13.3144 7 12.3716 7 11.7858 7.58578C11.2797 8.09188 11.2094 8.86446 11.2 10.2813C11.1985 10.5044 11.2 10.7435 11.2 11V12.6505C11.2 13.0191 11.2 13.2033 11.2756 13.3646C11.3511 13.5259 11.4926 13.6438 11.7757 13.8797ZM13.7999 10.2C13.7999 9.8686 14.0686 9.59997 14.3999 9.59997H17.5999C17.9312 9.59997 18.1999 9.8686 18.1999 10.2C18.1999 10.5313 17.9312 10.8 17.5999 10.8H14.3999C14.0686 10.8 13.7999 10.5313 13.7999 10.2ZM14.5999 12.5999C14.5999 12.2686 14.8686 11.9999 15.1999 11.9999H16.7999C17.1313 11.9999 17.3999 12.2686 17.3999 12.5999C17.3999 12.9313 17.1313 13.1999 16.7999 13.1999H15.1999C14.8686 13.1999 14.5999 12.9313 14.5999 12.5999Z" fill="white" fill-opacity="0.666667"/>
</svg>