<svg width="32" height="31" viewBox="0 0 32 31" fill="none" xmlns="http://www.w3.org/2000/svg">
<path d="M31.5 15.5C31.5 23.7694 24.5755 30.5 16 30.5C7.4245 30.5 0.5 23.7694 0.5 15.5C0.5 7.23057 7.4245 0.5 16 0.5C24.5755 0.5 31.5 7.23057 31.5 15.5Z" fill="#ACD8AA" stroke="#ACD8AA"/>
<path d="M18.3774 17.9312L18.0372 18.2893C18.0372 18.2893 17.2287 19.1405 15.0218 16.8171C12.8149 14.4936 13.6234 13.6424 13.6234 13.6424L13.8376 13.4169C14.3653 12.8613 14.4151 11.9694 13.9547 11.3183L13.0129 9.98629C12.4431 9.18038 11.342 9.07391 10.6889 9.76152L9.5167 10.9957C9.19285 11.3366 8.97584 11.7786 9.00216 12.2689C9.06948 13.5232 9.60547 16.2219 12.5963 19.3707C15.7679 22.7098 18.7438 22.8425 19.9608 22.7224C20.3457 22.6844 20.6804 22.4769 20.9502 22.1929L22.0111 21.0759C22.7273 20.322 22.5253 19.0294 21.6091 18.502L20.1822 17.6807C19.5806 17.3344 18.8476 17.4361 18.3774 17.9312Z" fill="white" fill-opacity="0.666667"/>
<path d="M16.6622 8.47038C16.7116 8.16501 17.0003 7.95786 17.3056 8.00729C17.3245 8.01091 17.3854 8.02228 17.4172 8.02937C17.481 8.04357 17.5699 8.06542 17.6807 8.0977C17.9024 8.16226 18.212 8.26862 18.5836 8.43899C19.3277 8.78012 20.3179 9.37684 21.3454 10.4043C22.3729 11.4318 22.9696 12.422 23.3107 13.166C23.4811 13.5377 23.5874 13.8473 23.652 14.069C23.6842 14.1798 23.7061 14.2687 23.7203 14.3324C23.7274 14.3643 23.7326 14.3899 23.7362 14.4088L23.7405 14.4321C23.7899 14.7374 23.5847 15.0381 23.2793 15.0875C22.9748 15.1368 22.6879 14.9306 22.6373 14.6267C22.6357 14.6185 22.6314 14.5967 22.6269 14.576C22.6176 14.5346 22.6017 14.469 22.5764 14.3822C22.5259 14.2087 22.4381 13.9508 22.2923 13.6329C22.0012 12.9979 21.4777 12.121 20.5532 11.1965C19.6288 10.272 18.7518 9.74847 18.1168 9.45733C17.7989 9.31158 17.541 9.2238 17.3674 9.17326C17.2807 9.14799 17.1717 9.12297 17.1303 9.11376C16.8263 9.0631 16.6129 8.77488 16.6622 8.47038Z" fill="white" fill-opacity="0.666667"/>
<path fill-rule="evenodd" clip-rule="evenodd" d="M16.8311 11.0466C16.9161 10.7491 17.2261 10.5769 17.5236 10.6619L17.3697 11.2004C17.5236 10.6619 17.5236 10.6619 17.5236 10.6619L17.5247 10.6622L17.5258 10.6625L17.5283 10.6632L17.5341 10.665L17.5489 10.6696C17.5601 10.6732 17.5742 10.6779 17.5909 10.6838C17.6245 10.6957 17.6688 10.7126 17.7232 10.7359C17.832 10.7826 17.9806 10.8546 18.1633 10.9627C18.5288 11.179 19.0278 11.5384 19.6141 12.1246C20.2004 12.7109 20.5597 13.2099 20.776 13.5754C20.8841 13.758 20.9561 13.9067 21.0028 14.0155C21.0261 14.0699 21.043 14.1142 21.0549 14.1478C21.0609 14.1645 21.0655 14.1786 21.0692 14.1898L21.0737 14.2046L21.0754 14.2104L21.0762 14.2129L21.0765 14.2141C21.0765 14.2141 21.0769 14.2151 20.5382 14.369L21.0769 14.2151C21.1619 14.5126 20.9896 14.8226 20.6922 14.9076C20.3972 14.9918 20.0899 14.8232 20.0019 14.5304L19.9991 14.5224C19.9951 14.5112 19.9869 14.4891 19.9731 14.4568C19.9455 14.3923 19.8954 14.2868 19.812 14.146C19.6455 13.8646 19.3447 13.4395 18.8219 12.9167C18.2992 12.394 17.8741 12.0932 17.5927 11.9267C17.4519 11.8434 17.3464 11.7933 17.2819 11.7656C17.2496 11.7518 17.2275 11.7435 17.2163 11.7396L17.2083 11.7368C16.9155 11.6488 16.7469 11.3415 16.8311 11.0466Z" fill="white" fill-opacity="0.666667"/>
</svg>