<svg width="32" height="31" viewBox="0 0 32 31" fill="none" xmlns="http://www.w3.org/2000/svg">
<path d="M31.5 15.5C31.5 23.7694 24.5755 30.5 16 30.5C7.4245 30.5 0.5 23.7694 0.5 15.5C0.5 7.23057 7.4245 0.5 16 0.5C24.5755 0.5 31.5 7.23057 31.5 15.5Z" fill="#5AA9E6" stroke="#5AA9E6"/>
<path d="M19.2326 8.55814C19.2326 8.24989 18.9827 8 18.6744 8C18.3662 8 18.1163 8.24989 18.1163 8.55814V23.4419C18.1163 23.7501 18.3662 24 18.6744 24C18.9827 24 19.2326 23.7501 19.2326 23.4419V21.9493C21.1942 21.9288 22.2868 21.8067 23.0119 21.0816C23.8837 20.2098 23.8837 18.8065 23.8837 16C23.8837 13.1935 23.8837 11.7903 23.0119 10.9184C22.2868 10.1933 21.1942 10.0712 19.2326 10.0507V8.55814Z" fill="white" fill-opacity="0.666667"/>
<path fill-rule="evenodd" clip-rule="evenodd" d="M14.9535 21.9535C12.147 21.9535 10.7437 21.9535 9.87187 21.0816C9 20.2098 9 18.8065 9 16C9 13.1935 9 11.7903 9.87187 10.9184C10.7437 10.0465 12.147 10.0465 14.9535 10.0465H17.186V21.9535H14.9535ZM12.5854 12.865C12.8086 12.8372 13.0813 12.8372 13.3787 12.8372H15.04C15.3373 12.8372 15.61 12.8372 15.8333 12.865C16.0779 12.8955 16.3386 12.9668 16.5627 13.166C16.601 13.2 16.6372 13.2362 16.6711 13.2745C16.8704 13.4986 16.9417 13.7594 16.9722 14.004C17.0001 14.2272 17.0001 14.4999 17 14.7972V14.8279C17 15.1361 16.7501 15.386 16.4419 15.386C16.1336 15.386 15.8837 15.1361 15.8837 14.8279C15.8837 14.4897 15.8827 14.2879 15.8645 14.1421C15.8464 13.9964 15.6951 13.9727 15.6951 13.9727C15.5494 13.9545 15.3475 13.9535 15.0093 13.9535H14.7674V18.0465H15.6977C16.0059 18.0465 16.2558 18.2964 16.2558 18.6047C16.2558 18.9129 16.0059 19.1628 15.6977 19.1628H12.7209C12.4127 19.1628 12.1628 18.9129 12.1628 18.6047C12.1628 18.2964 12.4127 18.0465 12.7209 18.0465H13.6512V13.9535H13.4093C13.071 13.9535 12.8693 13.9545 12.7235 13.9727C12.7235 13.9727 12.5723 13.9964 12.5541 14.1421C12.5359 14.2879 12.5349 14.4897 12.5349 14.8279C12.5349 15.1361 12.285 15.386 11.9768 15.386C11.6685 15.386 11.4186 15.1361 11.4186 14.8279L11.4186 14.7972C11.4186 14.4999 11.4185 14.2272 11.4464 14.004C11.4769 13.7594 11.5482 13.4986 11.7474 13.2745C11.7814 13.2362 11.8176 13.2 11.8559 13.166C12.08 12.9668 12.3408 12.8955 12.5854 12.865Z" fill="white" fill-opacity="0.666667"/>
</svg>