<svg width="32" height="31" viewBox="0 0 32 31" fill="none" xmlns="http://www.w3.org/2000/svg">
<path d="M31.5 15.5C31.5 23.7694 24.5755 30.5 16 30.5C7.4245 30.5 0.5 23.7694 0.5 15.5C0.5 7.23057 7.4245 0.5 16 0.5C24.5755 0.5 31.5 7.23057 31.5 15.5Z" fill="#ACD8AA" stroke="#ACD8AA"/>
<path fill-rule="evenodd" clip-rule="evenodd" d="M8.02783 14.6312C8.34424 10.3639 11.9068 7 16.255 7C15.5695 7 14.9592 7.30047 14.4571 7.75993C13.9576 8.21708 13.5354 8.85524 13.194 9.6096C12.8505 10.3684 12.5837 11.2559 12.4032 12.219C12.2584 12.9911 12.1703 13.805 12.141 14.6312H8.02783ZM8.02783 15.8687H12.141C12.1703 16.695 12.2584 17.5089 12.4032 18.281C12.5837 19.2441 12.8505 20.1316 13.194 20.8904C13.5354 21.6447 13.9576 22.2829 14.4571 22.7401C14.9592 23.1995 15.5695 23.5 16.255 23.5C11.9068 23.5 8.34424 20.1361 8.02783 15.8687Z" fill="white" fill-opacity="0.666667"/>
<path d="M16.255 8.15117C16.0281 8.15117 15.735 8.2477 15.3942 8.5596C15.0509 8.87379 14.7071 9.36623 14.4035 10.0371C14.1018 10.7036 13.8568 11.5081 13.6883 12.4072C13.5555 13.1153 13.4732 13.8658 13.4443 14.6313H19.0657C19.0368 13.8658 18.9544 13.1153 18.8217 12.4072C18.6532 11.5081 18.4082 10.7036 18.1065 10.0371C17.8028 9.36623 17.4591 8.87379 17.1158 8.5596C16.775 8.2477 16.4818 8.15117 16.255 8.15117Z" fill="white" fill-opacity="0.666667"/>
<path d="M13.6883 18.0928C13.8568 18.9919 14.1018 19.7964 14.4035 20.4629C14.7071 21.1338 15.0509 21.6262 15.3942 21.9404C15.735 22.2523 16.0281 22.3489 16.255 22.3489C16.4818 22.3489 16.775 22.2523 17.1158 21.9404C17.4591 21.6262 17.8028 21.1338 18.1065 20.4629C18.4082 19.7964 18.6532 18.9919 18.8217 18.0928C18.9544 17.3848 19.0368 16.6342 19.0657 15.8688H13.4443C13.4732 16.6342 13.5555 17.3848 13.6883 18.0928Z" fill="white" fill-opacity="0.666667"/>
<path d="M16.255 7C16.9405 7 17.5508 7.30047 18.0528 7.75993C18.5524 8.21708 18.9746 8.85524 19.316 9.6096C19.6594 10.3684 19.9262 11.2559 20.1068 12.219C20.2516 12.9911 20.3396 13.805 20.369 14.6313H24.4821C24.1657 10.3639 20.6032 7 16.255 7Z" fill="white" fill-opacity="0.666667"/>
<path d="M20.1068 18.281C19.9262 19.2441 19.6594 20.1316 19.316 20.8904C18.9746 21.6447 18.5524 22.2829 18.0528 22.7401C17.5508 23.1995 16.9405 23.5 16.255 23.5C20.6032 23.5 24.1657 20.1362 24.4821 15.8688H20.369C20.3396 16.695 20.2516 17.5089 20.1068 18.281Z" fill="white" fill-opacity="0.666667"/>
</svg>