<svg width="32" height="31" viewBox="0 0 32 31" fill="none" xmlns="http://www.w3.org/2000/svg">
<path d="M31.5 15.5C31.5 23.7694 24.5755 30.5 16 30.5C7.4245 30.5 0.5 23.7694 0.5 15.5C0.5 7.23057 7.4245 0.5 16 0.5C24.5755 0.5 31.5 7.23057 31.5 15.5Z" fill="#FB7295" stroke="#FB7295"/>
<path fill-rule="evenodd" clip-rule="evenodd" d="M9.33204 19.4325C9.61131 19.2697 9.96973 19.3641 10.1326 19.6433C10.7779 20.75 11.7645 21.5869 12.9812 22.1299C13.2764 22.2617 13.4089 22.6078 13.2772 22.9031C13.1454 23.1982 12.7993 23.3308 12.5041 23.199C11.0902 22.568 9.90403 21.5754 9.12125 20.233C8.95839 19.9538 9.05277 19.5954 9.33204 19.4325Z" fill="white" fill-opacity="0.666667"/>
<path fill-rule="evenodd" clip-rule="evenodd" d="M21.4233 9.3354C20.6319 8.52723 19.5034 8.22913 18.3985 8.54349C18.0876 8.63197 17.7638 8.45162 17.6753 8.14068C17.5869 7.82973 17.7672 7.50594 18.0781 7.41746C19.5909 6.98704 21.1647 7.39797 22.2597 8.51633C22.4859 8.74732 22.482 9.11793 22.2511 9.34411C22.02 9.57029 21.6495 9.56639 21.4233 9.3354Z" fill="white" fill-opacity="0.666667"/>
<path fill-rule="evenodd" clip-rule="evenodd" d="M15.4013 8.85654C15.2343 8.57004 14.7474 8.39629 14.2528 8.67895C13.7601 8.96057 13.6734 9.45698 13.8376 9.73849L15.8088 13.1188C15.9716 13.3981 15.8773 13.7565 15.598 13.9194C15.3187 14.0823 14.9604 13.9879 14.7975 13.7086L12.1692 9.20145C12.0021 8.91496 11.5152 8.74121 11.0206 9.02386C10.5279 9.30548 10.4412 9.8019 10.6054 10.0834L13.5622 15.1539C13.7251 15.4332 13.6307 15.7917 13.3514 15.9545C13.0722 16.1174 12.7137 16.023 12.5509 15.7437L11.2367 13.4901C11.0697 13.2036 10.5828 13.0299 10.0882 13.3125C9.59547 13.5941 9.5088 14.0905 9.67297 14.372L12.6298 19.4426C13.8856 21.596 16.9844 22.2949 19.6122 20.793C22.2383 19.2922 23.1717 16.294 21.9189 14.1455L19.9477 10.7652C19.7806 10.4787 19.2937 10.3049 18.7991 10.5876C18.3064 10.8692 18.2197 11.3656 18.3839 11.6471L19.698 13.9007C19.7767 14.0356 19.7982 14.1963 19.7578 14.3471C19.7174 14.4979 19.6184 14.6263 19.4828 14.7038C18.279 15.3918 17.91 16.7222 18.4371 17.6259C18.6 17.9053 18.5056 18.2637 18.2263 18.4265C17.947 18.5894 17.5886 18.495 17.4257 18.2158C16.7134 16.9941 17.0012 15.5232 17.9213 14.4836C18.1786 14.1929 18.2666 13.7701 18.0711 13.4348L15.4013 8.85654Z" fill="white" fill-opacity="0.666667"/>
</svg>